HIERARCHY
ROOT pelvis
{
  OFFSET 0 100 0
  CHANNELS 6 Xposition Yposition Zposition Zrotation Xrotation Yrotation
  JOINT pelvis_right_femur
  {
    OFFSET -10.78128 -3.44521 -0.5502486
    CHANNELS 3 Zrotation Xrotation Yrotation
    JOINT right_femur_tibia
    {
      OFFSET -0.8047443 -44.0398 -0.1307829
      CHANNELS 3 Zrotation Xrotation Yrotation
      JOINT right_tibia_foot
      {
        OFFSET 3.006224 -47.83518 -5
        CHANNELS 3 Zrotation Xrotation Yrotation
        End Site
        {
          OFFSET 0 -5 15
        }
      }
    }
  }
  JOINT pelvis_left_femur
  {
    OFFSET 10.78128 -3.44521 -0.5502486
    CHANNELS 3 Zrotation Xrotation Yrotation
    JOINT left_femur_tibia
    {
      OFFSET 0.8047443 -44.0398 -0.1307829
      CHANNELS 3 Zrotation Xrotation Yrotation
      JOINT left_tibia_foot
      {
        OFFSET -4.370144 -48.10324 -4.275266
        CHANNELS 3 Zrotation Xrotation Yrotation
        End Site
        {
          OFFSET 0 -5 15
        }
      }
    }
  }
  JOINT pelvis_spine1
  {
    OFFSET 0 6.468898 -3.129235
    CHANNELS 3 Zrotation Xrotation Yrotation
    JOINT spine1
    {
      OFFSET 0 23.15396 4.99043
      CHANNELS 3 Zrotation Xrotation Yrotation
      JOINT spine2
      {
        OFFSET 0 20.79997 -5.064912
        CHANNELS 3 Zrotation Xrotation Yrotation
        JOINT neck
        {
          OFFSET 0 14.38658 9.616178
          CHANNELS 3 Zrotation Xrotation Yrotation
          End Site
          {
            OFFSET 0 20 0
          }
        }
      }
      JOINT right_manubrium
      {
        OFFSET -5.722621 16.35077 3.967754
        CHANNELS 3 Zrotation Xrotation Yrotation
        JOINT right_clavicle
        {
          OFFSET -13.16364 1.694482 -4.693211
          CHANNELS 3 Zrotation Xrotation Yrotation
          JOINT right_humerus
          {
            OFFSET -28.5034 -0.3100689 -2.792744
            CHANNELS 3 Zrotation Xrotation Yrotation
            JOINT right_radius
            {
              OFFSET -25.15693 0.02248979 -1.271978
              CHANNELS 3 Zrotation Xrotation Yrotation
              End Site
              {
                OFFSET -15 0 0
              }
            }
          }
        }
      }
      JOINT left_manubrium
      {
        OFFSET 5.722621 16.35077 3.967754
        CHANNELS 3 Zrotation Xrotation Yrotation
        JOINT left_clavicle
        {
          OFFSET 13.16364 1.694482 -4.693211
          CHANNELS 3 Zrotation Xrotation Yrotation
          JOINT left_humerus
          {
            OFFSET 29.39168 -1.063119 -2.237045
            CHANNELS 3 Zrotation Xrotation Yrotation
            JOINT left_radius
            {
              OFFSET 24.59957 -0.9528479 0.9047498
              CHANNELS 3 Zrotation Xrotation Yrotation
              End Site
              {
                OFFSET 15 -0 -0
              }
            }
          }
        }
      }
    }
  }
}
MOTION
Frames: 17
Frame Time: 0.0416666666667
0 103.5113 0 0.8202133 -1.073674 0.06841724 3.463262 -16.43744 8.718166 -0 38.87123 -0 -6.146366 -15.44115 -2.911686 -7.309604 6.473164 -23.20147 -0 5.396993 -0 7.555072 -18.05832 26.43989 -2.002284 -2.003426 4.255339 2.142313 10.17209 -6.840654 0.7222062 22.14037 7.057665 4.683997 -23.77538 7.517741 6.102283 -18.54449 11.9024 85.04103 37.56376 -17.32137 -0 0 12.92754 -10.78879 8.793407 6.691065 6.343455 -21.64402 -2.87599 -92.8752 22.50493 21.60904 0 0 -15.3573 12.09939 16.88548 -0.167082
0.3611022 103.6323 0.8692054 0.7816437 -0.9522302 0.1303361 3.702531 -18.22715 8.834329 -0 38.96179 -0 -6.266323 -15.12027 -3.131494 -7.316033 8.17409 -23.48413 -0 6.243377 -0 7.616531 -18.42707 26.31717 -1.936984 -2.207086 4.060437 2.345906 10.298 -7.163025 0.6489514 22.05768 7.118221 4.776213 -24.2506 7.553586 6.164732 -18.53496 11.95816 85.81585 37.82704 -18.49305 -0 0 12.33184 -9.979699 8.585622 6.24503 6.466838 -22.19621 -2.969074 -92.76383 22.51168 21.41415 0 0 -16.25725 12.90427 17.27101 -0.9450054
0.6751197 103.7042 2.17528 0.747759 -1.103915 0.3030475 3.601808 -20.32572 8.025069 -0 38.1709 -0 -6.072916 -13.12888 -3.420614 -7.105665 10.3357 -22.56612 -0 6.435028 -0 6.869063 -19.03871 25.14552 -1.944339 -2.087932 4.013373 2.349311 10.14233 -7.218061 0.7092701 22.06166 7.108819 4.636817 -24.11104 7.646477 6.093529 -18.29973 11.87038 86.00981 37.64599 -18.78913 -0 0 12.1731 -10.14881 8.810395 6.251069 6.386119 -22.05327 -2.938246 -92.44042 23.12201 20.9218 0 0 -16.86344 11.92743 17.01885 0.2324374
0.9393832 103.6546 3.748135 0.6564909 -0.9948124 0.5048372 3.696852 -22.15648 7.371151 -0 35.79831 -0 -6.190481 -12.22752 -3.525492 -6.846432 11.79772 -21.90746 -0 6.117906 -0 6.4955 -19.53448 24.3057 -1.914992 -2.120191 3.893421 2.4514 10.11404 -7.408347 0.7082812 22.02122 7.132212 4.59975 -24.26759 7.718462 6.081902 -18.16565 11.84782 86.50394 37.66105 -19.53472 -0 0 11.7988 -9.846739 8.839386 6.036303 6.396368 -22.23929 -2.96551 -92.20473 23.48617 20.55519 0 0 -17.65691 11.74218 17.06167 0.5527179
1.13955 103.3684 5.730457 0.5058319 -0.8167409 0.735832 3.801932 -24.43217 6.325902 -0 31.61959 -0 -6.412951 -11.12651 -3.587361 -6.434326 13.433 -20.81072 -0 5.402025 -0 5.927671 -20.14619 23.0542 -1.898439 -2.101315 3.783717 2.524775 10.04237 -7.564505 0.7284055 21.99807 7.14637 4.528663 -24.32252 7.799602 6.047443 -17.97539 11.80027 86.93682 37.59937 -20.18115 -0 0 11.44987 -9.696597 8.932145 5.882408 6.38402 -22.3344 -2.979461 -91.8966 23.92902 20.07545 0 0 -18.43943 11.31366 16.99785 1.134414
1.279613 102.8415 8.158159 0.3547497 -0.6881044 0.9966514 3.849966 -26.54178 5.225208 -0 27.36931 -0 -6.61255 -9.955662 -3.646334 -6.03747 14.94575 -19.6057 -0 4.895165 -0 5.250854 -20.67078 21.71616 -1.878907 -2.103893 3.654688 2.611817 9.992227 -7.741493 0.7393864 21.97353 7.166219 4.477173 -24.4108 7.874662 6.020212 -17.7853 11.761 87.42787 37.55646 -20.90563 -0 0 11.03955 -9.485784 8.988844 5.693553 6.394652 -22.49088 -3.007606 -91.57263 24.30213 19.5637 0 0 -19.25365 11.04863 16.9776 1.526956
1.365821 102.0853 11.14337 0.2132722 -0.6948821 1.300749 3.779385 -28.49228 3.963443 -0 23.21898 -0 -6.711488 -8.397954 -3.748372 -5.661443 16.45015 -18.12197 -0 4.852208 -0 4.296361 -21.08212 20.12432 -1.868037 -2.086789 3.521118 2.685021 9.931761 -7.902365 0.7573262 21.96309 7.183653 4.421397 -24.4463 7.946843 5.984348 -17.5598 11.71221 87.89911 37.47915 -21.5886 -0 0 10.60912 -9.346731 9.057298 5.528499 6.410398 -22.62783 -3.037471 -91.19333 24.64602 18.95707 0 0 -20.04519 10.77128 16.91854 1.912563
1.409862 101.1455 14.77154 0.09457722 -0.8669624 1.654934 3.60618 -30.0918 2.634621 -0 19.50808 -0 -6.692135 -6.529423 -3.905584 -5.340673 17.82361 -16.4277 -0 5.546977 -0 3.086999 -21.28499 18.36247 -1.865373 -2.05585 3.381631 2.746044 9.868015 -8.048223 0.779395 21.96666 7.199737 4.367754 -24.43668 8.012808 5.942938 -17.30482 11.65734 88.3518 37.37637 -22.23145 -0 0 10.1544 -9.267425 9.126872 5.382763 6.436692 -22.75707 -3.071662 -90.7659 24.9332 18.26437 0 0 -20.80113 10.53037 16.83468 2.233079
1.42514 100.0933 19.12458 0.003443562 -1.234959 2.057388 3.37453 -31.20358 1.294149 -0 16.31372 -0 -6.552023 -4.389957 -4.133888 -5.077272 18.96642 -14.51546 -0 7.335634 -0 1.608107 -21.17512 16.45043 -1.872926 -2.00339 3.237934 2.790201 9.795086 -8.173249 0.8086556 21.98716 7.213047 4.311547 -24.36597 8.073485 5.892824 -17.01216 11.59297 88.77385 37.23848 -22.8159 -0 0 9.679619 -9.271842 9.206983 5.266312 6.47064 -22.86504 -3.108329 -90.28062 25.17016 17.46908 0 0 -21.51621 10.29392 16.71042 2.52182
1.426257 99.04081 24.23825 -0.05193446 -1.817816 2.489291 3.18285 -31.58855 0.1049275 -0 13.84257 -0 -6.306178 -2.168595 -4.440198 -4.868659 19.67182 -12.47721 -0 10.66384 -0 -0.07466728 -20.61158 14.52272 -1.889228 -1.933558 3.093229 2.818357 9.716891 -8.277056 0.8434134 22.02252 7.223529 4.255 -24.24245 8.127511 5.83596 -16.69272 11.52209 89.15959 37.07209 -23.33534 -0 0 9.195852 -9.350672 9.293648 5.178435 6.511618 -22.95382 -3.147279 -89.75497 25.3497 16.59898 0 0 -22.17781 10.07447 16.55454 2.766219
1.425161 98.14801 30.07816 -0.0642213 -2.631055 2.908005 3.171555 -30.93078 -0.7079293 -0 12.33123 -0 -5.985442 -0.146608 -4.821488 -4.68674 19.647 -10.45312 -0 16.08121 -0 -1.85409 -19.42736 12.77915 -1.912799 -1.850204 2.963702 2.825999 9.638414 -8.347286 0.8816899 22.06951 7.22917 4.200535 -24.07313 8.170561 5.77607 -16.37691 11.45041 89.46582 36.88941 -23.73129 -0 0 8.756625 -9.505264 9.383941 5.132402 6.552623 -23.00749 -3.183522 -89.24113 25.46286 15.74056 0 0 -22.72048 9.871009 16.37535 2.96848
1.424885 97.61822 36.49724 -0.03224872 -3.658592 3.239955 3.492043 -28.85798 -0.8744963 -0 12.01171 -0 -5.656287 1.240659 -5.242986 -4.474526 18.50585 -8.676049 -0 24.04696 -0 -3.546012 -17.47629 11.51745 -1.941516 -1.759049 2.892765 2.79896 9.568429 -8.348221 0.9198668 22.12128 7.224407 4.152412 -23.8683 8.192031 5.722082 -16.13946 11.39046 89.57327 36.71974 -23.84146 -0 0 8.505076 -9.750602 9.474348 5.16763 6.573712 -22.97561 -3.201968 -88.86799 25.49864 15.11157 0 0 -22.96878 9.662381 16.18496 3.15409
1.412301 97.65544 43.21091 0.02656075 -4.818897 3.38044 4.212823 -25.07319 -0.2122687 -0 12.88042 -0 -5.434735 1.453671 -5.617417 -4.157856 15.85667 -7.422063 -0 34.5305 -0 -4.918388 -14.72837 11.05989 -1.973427 -1.662601 2.951777 2.711663 9.513839 -8.219325 0.955028 22.16807 7.199309 4.111939 -23.63371 8.177412 5.685632 -16.09338 11.35866 89.28514 36.60059 -23.3971 -0 0 8.675856 -10.12715 9.56863 5.354096 6.538343 -22.76392 -3.175484 -88.8312 25.46261 15.04842 0 0 -22.64565 9.372832 15.98652 3.412294
1.360234 98.36815 49.83584 0.06956656 -5.932394 3.215684 5.204713 -19.63009 1.181348 -0 14.42961 -0 -5.456535 0.06989744 -5.807536 -3.694401 11.53497 -6.876631 -0 46.31043 -0 -5.761701 -11.4247 11.58508 -2.008591 -1.556019 3.190795 2.543162 9.473168 -7.915591 0.9881893 22.20501 7.145555 4.074723 -23.36032 8.118529 5.670634 -16.30885 11.36284 88.46361 36.53607 -22.20436 -0 0 9.432485 -10.68291 9.67721 5.747897 6.417555 -22.2965 -3.083652 -89.25295 25.36869 15.7636 0 0 -21.56499 8.915299 15.76476 3.843795
1.250484 99.65773 56.04805 0.04854027 -6.764145 2.677607 6.146424 -13.18633 2.821418 -0 15.60377 -0 -5.764816 -2.786874 -5.688925 -3.10456 5.89395 -6.917622 -0 56.6386 -0 -6.008278 -8.145985 12.90023 -2.052122 -1.425931 3.561316 2.30212 9.43502 -7.468538 1.026453 22.24556 7.06656 4.034155 -23.01225 8.024397 5.659772 -16.69307 11.38607 87.23902 36.45307 -20.42221 -0 0 10.6119 -11.43896 9.805412 6.320272 6.234712 -21.62327 -2.945716 -89.97348 25.19768 16.98195 0 0 -19.90578 8.315376 15.48872 4.408222
1.104245 101.2104 61.77511 -0.04474326 -7.170297 1.798627 6.726136 -6.754017 4.047031 -0 15.40176 -0 -6.21321 -6.278105 -5.224724 -2.411605 -0.2621713 -7.080308 -0 62.36905 -0 -5.78252 -5.569584 14.46016 -2.109202 -1.263624 3.949556 2.02241 9.390392 -6.966561 1.07684 22.31089 6.974985 3.988055 -22.55772 7.913891 5.625573 -17.06001 11.39982 85.93076 36.26068 -18.46591 -0 0 11.83653 -12.36689 9.945427 6.974655 6.050983 -20.89239 -2.810147 -90.66232 24.91591 18.14134 0 0 -18.08865 7.709879 15.14365 4.933902
0.9810768 102.6374 67.20205 -0.1647082 -7.19336 0.7007064 6.832476 -0.9695668 4.463808 -0 13.68142 -0 -6.562406 -9.437988 -4.458553 -1.58573 -6.248135 -6.897802 -0 61.9947 -0 -5.288371 -4.041736 15.78013 -2.175941 -1.078357 4.302385 1.729293 9.343403 -6.463759 1.138338 22.40212 6.877974 3.938115 -22.01516 7.797493 5.557884 -17.34264 11.39619 84.71579 35.93933 -16.57355 -0 0 12.93313 -13.40707 10.08573 7.648045 5.893765 -20.1914 -2.702056 -91.18707 24.5324 19.02598 0 0 -16.33627 7.175828 14.75028 5.338295
